<?xml version="1.0" encoding="UTF-8" standalone="no"?>
<!DOCTYPE svg PUBLIC "-//W3C//DTD SVG 1.1//EN" "http://www.w3.org/Graphics/SVG/1.1/DTD/svg11.dtd">
<svg xmlns="http://www.w3.org/2000/svg" version="1.1" viewBox="0 0 1024 1024" width="1024.0pt" height="1024.0pt" xmlns:xlink="http://www.w3.org/1999/xlink">
<defs>
<path d="M 0.00 0.00 L 550.80 0.00 C 549.17 0.57 547.55 1.18 545.93 1.76 C 539.89 3.93 533.38 6.11 526.98 6.84 C 521.90 7.48 517.43 6.44 512.56 8.56 C 503.78 12.27 494.76 15.37 485.58 17.92 C 476.06 20.78 466.73 25.37 457.92 29.93 C 448.05 35.04 438.73 41.12 429.99 47.98 C 421.28 54.82 412.42 61.76 404.39 69.38 C 397.05 76.23 389.93 83.29 385.01 92.14 C 381.92 97.71 379.40 103.18 374.73 107.71 C 370.56 111.81 364.79 114.75 361.77 119.76 C 359.05 124.23 359.35 128.80 357.45 133.49 C 355.82 137.70 354.08 141.80 351.52 145.54 C 348.39 150.19 346.76 155.72 345.10 161.04 C 338.57 182.66 336.88 206.47 334.96 228.95 C 333.79 243.63 332.81 258.16 333.41 272.91 C 333.77 281.54 335.70 290.14 338.92 298.16 C 342.14 306.18 345.37 314.55 346.38 323.20 C 347.10 332.75 347.87 342.67 350.28 351.97 C 351.57 357.19 354.46 362.15 357.38 366.63 C 358.61 368.49 360.31 369.72 362.00 371.11 C 364.19 372.86 365.73 375.61 367.29 377.93 C 364.86 389.76 363.49 401.97 362.46 414.00 C 362.56 424.58 358.94 434.44 358.81 445.05 C 358.85 447.88 361.10 450.30 363.94 450.43 C 367.41 450.62 371.15 449.56 374.52 448.78 C 376.91 462.91 383.40 475.74 392.55 486.68 C 393.31 495.21 393.64 503.55 396.31 511.78 C 400.91 526.34 407.70 540.33 413.98 554.23 C 413.28 554.79 412.58 555.36 411.88 555.92 C 409.38 564.37 406.77 573.19 406.06 581.99 C 405.16 580.29 404.44 577.56 402.03 577.68 C 396.97 577.87 391.86 580.36 387.17 582.16 C 379.39 585.19 373.36 590.78 365.49 593.53 C 359.03 595.85 352.40 597.65 345.97 600.04 C 325.20 607.76 305.25 618.07 284.81 626.72 C 274.62 631.24 264.00 635.01 254.07 640.07 C 236.48 649.16 223.79 666.08 206.00 676.01 C 195.39 681.87 184.35 686.26 174.36 693.35 C 161.64 702.33 150.38 713.52 140.27 725.31 C 134.08 732.62 128.93 740.61 123.21 748.25 C 117.32 755.99 110.61 763.03 104.97 770.98 C 102.02 775.29 97.83 778.38 95.15 782.87 C 76.95 779.77 58.45 778.36 40.00 778.37 C 34.00 778.33 28.00 778.33 22.00 778.29 C 15.73 778.24 9.03 777.28 2.78 777.86 C 0.55 778.09 0.65 780.89 0.00 782.47 L 0.00 0.00 Z" id="p0" />
<path d="M 550.80 0.00 L 559.90 0.00 C 561.01 0.48 562.13 0.94 563.25 1.40 C 557.49 1.38 551.66 1.18 545.93 1.76 C 547.55 1.18 549.17 0.57 550.80 0.00 Z" id="p1" />
<path d="M 559.90 0.00 L 1024.00 0.00 L 1024.00 568.19 L 1023.59 566.49 L 1023.27 564.95 C 1017.15 562.45 1010.41 561.15 1004.02 559.36 C 960.67 548.27 917.90 535.24 875.24 521.75 C 871.62 520.80 867.15 518.71 863.47 519.84 L 861.95 520.32 C 859.28 515.69 856.00 511.45 853.26 506.86 C 850.31 502.34 846.76 496.61 841.61 494.43 C 837.34 492.40 831.26 493.26 827.56 490.40 C 825.17 487.81 824.03 483.90 822.50 480.75 C 819.16 473.04 813.50 466.27 806.74 461.33 C 804.29 459.49 802.05 459.18 799.05 459.22 C 798.04 460.23 797.04 461.23 795.96 462.16 C 796.44 451.43 796.65 440.69 796.19 429.95 C 796.16 427.58 795.94 424.90 796.68 422.63 C 797.79 419.70 799.74 417.00 801.26 414.26 C 805.86 406.45 807.21 396.89 805.68 388.01 C 804.70 381.94 803.71 376.28 805.19 370.15 C 806.68 364.19 808.23 358.28 809.02 352.17 C 811.47 332.04 809.29 312.21 811.29 292.01 C 811.73 283.56 811.42 272.34 805.21 265.80 C 801.94 262.08 797.81 261.55 793.74 259.28 C 791.17 258.07 791.25 254.22 790.62 251.80 C 786.88 233.94 786.11 216.17 785.31 198.01 C 784.23 183.20 784.26 169.44 779.97 154.99 C 776.24 142.62 769.07 131.75 761.79 121.22 C 753.83 109.84 745.41 98.21 735.86 88.14 C 731.29 83.26 726.40 79.09 721.47 74.55 C 709.17 63.57 698.01 52.26 684.58 42.42 C 673.99 34.59 662.55 28.59 650.53 23.29 C 642.80 19.92 635.58 15.72 628.04 11.95 C 623.10 9.50 619.54 6.17 614.03 4.92 C 606.64 3.22 600.98 6.73 593.01 6.81 C 582.56 7.51 572.98 4.74 563.25 1.40 C 562.13 0.94 561.01 0.48 559.90 0.00 Z" id="p2" />
<path d="M 545.93 1.76 C 551.66 1.18 557.49 1.38 563.25 1.40 C 572.98 4.74 582.56 7.51 593.01 6.81 C 600.98 6.73 606.64 3.22 614.03 4.92 C 619.54 6.17 623.10 9.50 628.04 11.95 C 635.58 15.72 642.80 19.92 650.53 23.29 C 662.55 28.59 673.99 34.59 684.58 42.42 C 698.01 52.26 709.17 63.57 721.47 74.55 C 726.40 79.09 731.29 83.26 735.86 88.14 C 745.41 98.21 753.83 109.84 761.79 121.22 C 769.07 131.75 776.24 142.62 779.97 154.99 C 784.26 169.44 784.23 183.20 785.31 198.01 C 786.11 216.17 786.88 233.94 790.62 251.80 C 791.25 254.22 791.17 258.07 793.74 259.28 C 797.81 261.55 801.94 262.08 805.21 265.80 C 811.42 272.34 811.73 283.56 811.29 292.01 C 809.29 312.21 811.47 332.04 809.02 352.17 C 808.23 358.28 806.68 364.19 805.19 370.15 C 803.71 376.28 804.70 381.94 805.68 388.01 C 807.21 396.89 805.86 406.45 801.26 414.26 C 799.74 417.00 797.79 419.70 796.68 422.63 C 795.94 424.90 796.16 427.58 796.19 429.95 C 796.65 440.69 796.44 451.43 795.96 462.16 C 797.04 461.23 798.04 460.23 799.05 459.22 C 802.05 459.18 804.29 459.49 806.74 461.33 C 813.50 466.27 819.16 473.04 822.50 480.75 C 824.03 483.90 825.17 487.81 827.56 490.40 C 831.26 493.26 837.34 492.40 841.61 494.43 C 846.76 496.61 850.31 502.34 853.26 506.86 C 856.00 511.45 859.28 515.69 861.95 520.32 C 863.82 523.94 866.55 527.11 868.14 530.84 C 870.22 536.14 869.62 542.65 869.25 548.21 C 868.68 557.72 867.02 566.42 867.57 576.00 C 867.75 580.68 868.56 585.21 866.63 589.65 C 864.60 594.47 861.17 598.87 858.00 603.00 C 847.54 616.21 835.24 628.69 825.38 642.41 C 817.70 653.12 812.36 664.14 804.15 674.13 C 795.52 684.84 784.60 693.78 772.79 700.78 C 756.93 710.02 739.49 716.79 723.08 725.06 C 707.55 732.84 692.34 741.41 677.62 750.62 C 673.74 752.94 670.89 755.77 666.42 756.93 C 681.99 737.48 699.52 719.57 715.27 700.26 C 716.93 698.19 718.29 695.93 719.59 693.62 C 713.18 695.15 707.32 698.12 700.95 699.76 C 685.18 704.03 668.73 706.09 652.43 706.92 C 643.94 707.61 635.48 707.30 627.01 706.62 C 596.93 704.83 568.83 694.87 542.66 680.32 C 540.80 679.23 539.22 677.82 537.59 676.43 C 557.85 688.20 578.99 697.49 602.00 702.35 C 621.70 706.44 641.99 707.24 662.00 705.45 C 681.16 703.66 700.05 700.70 717.73 692.77 C 719.41 691.88 720.94 690.60 722.37 689.36 C 730.51 682.06 737.62 673.98 744.39 665.41 C 756.79 649.58 767.43 632.33 776.26 614.27 C 783.65 598.95 789.79 582.57 793.04 565.85 C 795.64 553.17 795.30 539.76 793.31 527.02 C 792.44 521.23 792.03 515.62 789.96 510.08 C 787.45 514.51 786.22 519.30 784.80 524.14 C 777.42 550.01 766.62 575.38 751.84 597.91 C 744.11 609.51 735.05 620.37 725.61 630.61 C 712.82 644.72 698.28 658.99 681.79 668.69 C 667.42 677.03 651.42 683.91 635.00 686.85 C 619.99 689.62 604.38 690.28 589.23 688.23 C 570.03 685.66 552.47 679.78 534.30 673.46 L 536.71 675.89 C 530.82 673.45 524.82 669.48 520.29 664.99 C 525.79 668.06 530.69 671.40 536.74 673.37 C 559.51 681.43 584.66 689.13 609.00 688.52 C 618.02 688.55 627.06 687.45 635.92 685.81 C 650.59 682.98 664.81 677.18 677.82 669.90 C 689.51 662.69 700.21 653.57 710.42 644.41 C 718.32 637.31 725.64 629.61 732.53 621.53 C 744.77 607.58 755.43 592.31 763.73 575.68 C 772.19 559.15 778.94 541.79 783.96 523.91 C 785.94 516.43 789.24 509.16 790.09 501.58 C 791.41 491.39 793.05 481.24 794.37 471.04 C 795.83 454.11 796.02 436.94 794.45 420.00 C 792.80 401.59 788.63 383.89 784.01 366.05 C 781.64 364.29 779.55 362.46 778.37 359.67 C 774.36 350.72 772.77 340.33 770.60 330.80 C 767.59 317.53 764.58 304.08 760.05 291.24 L 759.89 290.77 C 756.30 302.81 753.06 314.92 748.86 326.78 C 746.74 332.49 745.74 338.38 744.26 344.25 C 742.21 352.50 740.06 361.00 736.86 368.88 C 734.84 373.87 732.12 378.48 728.26 382.26 C 723.86 386.63 717.91 389.78 712.55 392.87 C 714.41 398.62 716.41 403.89 716.69 410.00 C 717.05 417.29 718.03 425.90 714.75 432.69 C 711.48 439.55 704.36 443.65 697.75 446.76 C 685.36 452.43 671.79 455.86 658.48 458.60 C 643.76 461.51 628.80 463.04 613.80 463.19 C 616.94 468.81 620.88 475.46 621.30 482.00 C 621.31 488.73 615.29 493.10 609.90 495.89 C 603.49 498.93 596.33 501.44 589.22 501.84 C 597.00 499.38 604.68 498.27 611.79 493.83 C 616.39 491.10 621.06 486.84 620.36 480.96 C 619.56 474.81 615.76 468.67 612.92 463.22 C 604.00 462.64 593.95 462.49 585.86 458.16 C 580.32 455.24 576.83 450.44 574.00 445.00 C 569.87 436.97 566.14 428.73 562.57 420.44 C 555.40 420.27 548.15 419.93 540.98 420.42 C 532.08 421.07 523.61 425.30 515.72 429.20 C 515.98 439.43 517.10 450.15 516.48 460.35 C 515.99 466.49 514.88 472.97 510.96 477.94 C 507.79 481.77 506.83 486.26 506.00 491.04 C 505.35 495.37 505.57 500.12 508.13 503.83 C 511.83 509.17 517.77 511.93 524.07 512.81 C 531.37 513.91 538.13 512.89 545.37 512.15 C 541.54 509.87 538.14 506.70 534.11 504.82 C 528.12 502.76 523.02 505.78 517.35 507.19 C 521.79 504.31 527.54 502.65 532.82 503.53 C 535.96 504.19 538.89 506.72 541.49 508.52 C 547.30 512.94 555.74 514.59 562.77 512.78 C 570.57 510.44 575.32 504.29 581.02 499.02 C 588.45 492.21 597.97 489.41 607.85 488.72 C 602.93 490.64 597.69 490.65 592.81 492.76 C 586.81 495.03 581.95 498.96 577.57 503.57 C 572.32 508.88 566.80 513.73 558.99 514.35 C 554.45 514.92 550.48 513.15 546.10 512.80 C 538.78 513.94 531.40 514.20 524.02 513.66 C 516.54 512.82 508.64 508.49 505.80 501.20 C 504.19 494.92 505.29 487.69 507.57 481.68 C 503.36 483.82 499.07 485.21 494.47 486.18 C 471.88 491.21 448.12 496.96 424.99 497.95 C 420.26 498.32 415.68 497.88 410.97 497.47 C 407.66 497.14 403.96 496.59 401.02 494.97 C 398.12 493.32 395.79 490.19 393.50 487.85 C 394.25 495.03 394.43 502.09 396.46 509.07 C 399.85 521.26 405.33 532.95 410.51 544.47 C 413.05 549.64 414.78 555.22 417.94 559.93 C 431.10 580.69 445.42 602.71 462.98 620.02 C 471.59 628.91 481.13 636.42 490.07 644.93 C 494.55 649.20 499.84 650.71 504.89 654.16 C 510.06 657.63 515.34 661.02 520.19 664.93 C 513.14 661.69 507.25 656.27 500.52 652.38 C 499.70 652.20 498.86 652.05 498.02 651.92 C 498.70 653.81 499.82 655.41 501.08 656.95 C 507.37 664.65 513.97 672.08 520.16 679.86 C 528.73 690.46 536.51 701.19 546.60 710.40 C 560.52 723.27 578.06 733.60 593.88 744.16 C 603.32 750.33 612.62 757.10 622.53 762.49 C 625.48 763.99 628.69 765.75 631.98 766.26 C 637.34 766.19 642.62 763.70 648.02 763.56 C 651.77 763.46 655.38 764.55 659.08 764.51 C 661.30 763.66 662.86 760.92 664.67 759.35 C 668.07 759.66 671.04 756.51 673.85 754.85 C 696.02 740.28 719.64 727.79 743.80 716.84 C 755.84 711.28 768.31 705.71 779.36 698.34 C 789.24 691.79 798.11 683.76 805.62 674.58 C 813.25 665.19 818.32 655.03 825.19 645.15 C 835.89 629.71 849.95 615.95 861.20 601.18 C 864.12 597.17 867.44 592.67 868.74 587.84 C 869.67 582.71 868.85 577.21 868.97 572.00 C 868.76 562.20 870.92 552.78 871.05 543.00 C 871.09 538.47 871.26 533.98 869.24 529.81 C 867.54 526.37 865.28 523.23 863.47 519.84 C 867.15 518.71 871.62 520.80 875.24 521.75 C 917.90 535.24 960.67 548.27 1004.02 559.36 C 1010.41 561.15 1017.15 562.45 1023.27 564.95 L 1023.59 566.49 C 1022.62 573.34 1023.08 580.11 1023.00 587.00 C 1023.00 664.67 1023.00 742.33 1023.00 820.00 C 1022.93 822.26 1022.66 824.49 1022.47 826.74 L 1021.11 824.78 C 1015.25 823.64 1008.96 823.67 1003.00 823.63 C 977.14 823.64 951.27 825.23 925.49 827.13 C 877.61 830.75 831.12 837.01 785.07 851.09 C 780.15 852.67 775.11 854.21 770.44 856.45 C 767.96 857.72 765.34 859.34 764.48 862.18 C 763.49 865.54 764.12 869.58 764.44 873.03 C 766.58 892.03 768.44 911.08 770.86 930.04 C 771.35 933.79 771.80 937.58 772.66 941.27 C 773.19 943.06 773.42 944.88 775.07 946.00 C 778.22 945.48 781.33 943.57 784.20 942.19 C 797.00 935.75 810.47 932.30 824.50 929.74 C 846.60 925.83 868.71 923.50 890.99 921.05 C 916.28 918.31 941.64 915.58 967.03 913.97 C 977.07 913.23 988.03 913.54 998.04 911.96 C 1003.64 910.98 1008.92 909.15 1012.73 904.71 C 1017.37 899.40 1019.18 891.31 1020.38 884.53 C 1021.31 879.20 1021.89 873.83 1022.11 868.42 C 1023.11 873.27 1023.14 878.08 1023.01 883.00 C 1022.99 930.00 1023.01 977.00 1023.00 1024.00 L 354.78 1024.00 C 359.91 1010.36 362.31 995.39 364.49 981.03 C 368.43 952.73 371.12 924.24 374.06 895.82 C 375.00 884.21 376.32 872.64 376.93 861.00 C 377.26 854.90 378.40 847.83 375.42 842.30 C 369.84 844.36 364.80 847.17 359.09 848.85 C 348.61 851.98 337.92 852.34 327.02 853.21 C 301.03 854.03 274.99 853.90 248.99 853.55 C 220.08 853.27 191.28 850.26 162.83 845.20 C 150.95 843.10 138.79 840.59 127.47 836.37 C 123.84 835.07 120.62 832.87 117.01 831.57 C 116.17 831.55 115.43 831.97 114.81 832.82 C 112.11 836.52 111.01 841.61 109.89 845.99 C 107.42 857.14 106.05 868.60 105.41 880.00 C 103.75 904.89 104.03 930.11 104.63 955.04 C 105.58 977.70 106.59 1002.00 112.62 1024.00 L 108.42 1024.00 C 111.56 1018.79 108.40 1011.72 108.04 1005.93 C 101.73 1008.08 95.77 1010.39 89.00 1010.57 C 72.85 1011.75 58.88 1005.78 42.00 1003.75 C 29.47 1002.35 16.92 1001.21 4.43 999.40 C 3.46 999.29 2.49 999.17 1.51 999.06 C 1.55 1004.88 1.71 1010.70 1.63 1016.52 C 6.56 1018.99 11.46 1021.12 17.01 1021.67 C 29.02 1022.89 41.32 1020.50 53.29 1021.80 C 51.21 1022.20 49.11 1022.36 47.00 1022.38 C 37.47 1022.37 27.57 1023.01 17.99 1022.61 C 12.02 1022.28 6.91 1020.07 1.63 1017.48 C 1.64 1019.66 1.65 1021.83 1.66 1024.00 L 0.00 1024.00 L 0.00 782.47 C 0.65 780.89 0.55 778.09 2.78 777.86 C 9.03 777.28 15.73 778.24 22.00 778.29 C 28.00 778.33 34.00 778.33 40.00 778.37 C 58.45 778.36 76.95 779.77 95.15 782.87 C 97.83 778.38 102.02 775.29 104.97 770.98 C 110.61 763.03 117.32 755.99 123.21 748.25 C 128.93 740.61 134.08 732.62 140.27 725.31 C 150.38 713.52 161.64 702.33 174.36 693.35 C 184.35 686.26 195.39 681.87 206.00 676.01 C 223.79 666.08 236.48 649.16 254.07 640.07 C 264.00 635.01 274.62 631.24 284.81 626.72 C 305.25 618.07 325.20 607.76 345.97 600.04 C 352.40 597.65 359.03 595.85 365.49 593.53 C 373.36 590.78 379.39 585.19 387.17 582.16 C 391.86 580.36 396.97 577.87 402.03 577.68 C 404.44 577.56 405.16 580.29 406.06 581.99 C 406.77 573.19 409.38 564.37 411.88 555.92 C 412.58 555.36 413.28 554.79 413.98 554.23 C 407.70 540.33 400.91 526.34 396.31 511.78 C 393.64 503.55 393.31 495.21 392.55 486.68 C 383.40 475.74 376.91 462.91 374.52 448.78 C 371.15 449.56 367.41 450.62 363.94 450.43 C 361.10 450.30 358.85 447.88 358.81 445.05 C 358.94 434.44 362.56 424.58 362.46 414.00 C 363.49 401.97 364.86 389.76 367.29 377.93 C 365.73 375.61 364.19 372.86 362.00 371.11 C 360.31 369.72 358.61 368.49 357.38 366.63 C 354.46 362.15 351.57 357.19 350.28 351.97 C 347.87 342.67 347.10 332.75 346.38 323.20 C 345.37 314.55 342.14 306.18 338.92 298.16 C 335.70 290.14 333.77 281.54 333.41 272.91 C 332.81 258.16 333.79 243.63 334.96 228.95 C 336.88 206.47 338.57 182.66 345.10 161.04 C 346.76 155.72 348.39 150.19 351.52 145.54 C 354.08 141.80 355.82 137.70 357.45 133.49 C 359.35 128.80 359.05 124.23 361.77 119.76 C 364.79 114.75 370.56 111.81 374.73 107.71 C 379.40 103.18 381.92 97.71 385.01 92.14 C 389.93 83.29 397.05 76.23 404.39 69.38 C 412.42 61.76 421.28 54.82 429.99 47.98 C 438.73 41.12 448.05 35.04 457.92 29.93 C 466.73 25.37 476.06 20.78 485.58 17.92 C 494.76 15.37 503.78 12.27 512.56 8.56 C 517.43 6.44 521.90 7.48 526.98 6.84 C 533.38 6.11 539.89 3.93 545.93 1.76 Z M 363.55 371.04 C 365.10 373.16 366.60 375.31 368.07 377.47 C 369.13 377.86 370.19 378.26 371.24 378.66 C 371.24 383.46 374.22 387.19 374.46 391.96 C 375.72 405.28 378.76 418.48 383.51 431.00 C 387.09 430.60 390.57 429.99 394.08 429.16 C 408.13 425.84 422.60 422.11 436.89 420.06 C 442.57 418.27 448.33 418.22 454.13 417.20 C 460.75 416.07 467.42 415.25 474.07 414.35 C 477.75 413.90 481.29 411.39 484.53 409.64 C 488.09 407.51 492.56 405.29 495.04 401.90 C 496.57 399.48 494.94 397.44 493.15 395.82 C 488.80 392.09 483.38 389.55 478.62 386.36 C 479.41 391.03 480.22 395.25 477.53 399.52 C 474.54 404.01 469.75 407.63 464.89 409.90 C 459.46 412.17 453.74 410.38 450.41 405.59 C 446.55 399.71 446.19 391.16 449.72 385.02 C 443.76 387.44 437.94 389.95 432.59 393.59 C 429.12 395.94 425.61 398.82 423.51 402.51 C 421.91 405.30 421.95 409.29 424.22 411.73 C 427.93 415.89 433.13 416.72 438.39 417.26 C 437.31 417.36 436.23 417.47 435.15 417.57 C 430.59 417.39 425.33 415.16 422.77 411.26 C 420.96 408.61 421.83 406.10 421.74 403.01 C 420.68 404.47 419.59 405.91 418.48 407.33 C 420.36 403.00 423.47 399.10 426.77 395.77 C 430.89 391.64 436.43 389.07 441.67 386.67 C 449.82 382.93 458.99 380.28 468.02 380.72 C 480.09 381.29 493.25 385.22 502.53 393.18 C 498.26 391.29 494.52 388.50 490.21 386.65 C 484.32 383.98 478.08 382.56 471.67 381.79 C 478.16 385.01 484.34 388.74 490.45 392.63 C 492.70 394.18 495.86 396.40 496.52 399.21 C 497.01 401.79 494.85 403.61 493.13 405.15 C 488.86 408.57 483.70 411.04 478.94 413.69 C 486.17 413.45 494.55 412.35 501.58 414.46 C 506.33 415.88 509.59 419.04 512.88 422.56 C 519.09 419.36 525.75 416.24 532.53 414.50 C 541.62 412.30 550.81 412.66 560.07 413.03 C 560.36 410.56 560.28 407.88 561.75 405.75 C 564.08 402.28 568.34 399.86 571.96 397.94 C 580.64 393.58 589.99 390.47 599.32 387.86 C 597.72 386.59 595.41 385.41 594.42 383.58 C 593.92 381.12 596.08 378.34 597.48 376.50 C 604.56 368.34 611.14 360.55 620.84 355.37 C 613.30 357.15 606.22 359.21 600.02 364.04 C 593.13 369.26 588.59 376.09 582.57 382.02 C 583.56 380.24 584.66 378.55 586.00 377.01 C 592.34 369.86 597.88 362.98 606.84 358.91 C 615.90 354.90 626.15 353.24 636.00 352.90 C 648.42 352.75 660.03 355.69 671.77 359.43 C 676.97 361.15 682.39 362.58 687.37 364.90 C 682.01 364.13 676.76 361.87 671.65 360.13 C 671.45 362.10 672.17 364.07 670.60 365.55 C 667.56 368.90 663.67 371.56 660.23 374.49 C 670.85 372.96 681.18 370.79 692.00 371.26 C 695.29 371.41 698.48 371.99 701.38 373.64 C 704.25 375.21 705.96 377.68 707.94 380.18 C 712.37 378.67 716.51 377.27 720.12 374.14 C 723.80 371.08 726.14 366.99 727.69 362.51 C 731.47 351.85 736.13 341.47 739.71 330.74 C 740.77 326.69 742.34 322.88 743.84 318.99 C 748.11 306.12 751.59 292.89 755.35 279.87 C 749.66 268.41 742.50 257.58 734.11 247.91 C 729.56 242.52 725.72 236.58 722.90 230.10 C 718.50 220.10 717.85 209.37 714.11 198.94 C 711.12 189.64 705.71 181.91 699.46 174.53 C 694.30 168.52 688.80 162.32 682.49 157.49 C 676.60 152.95 669.38 151.27 662.24 149.76 C 649.01 147.22 635.44 146.32 621.99 146.86 C 614.46 147.28 607.03 148.06 600.01 151.00 C 591.87 154.51 584.85 159.46 578.03 165.05 C 569.59 171.83 560.07 176.77 549.53 179.33 C 536.90 182.34 524.31 185.50 511.76 188.79 C 505.15 190.56 498.90 192.90 492.01 193.29 C 483.56 193.84 474.75 191.97 466.51 190.19 C 457.75 188.12 448.12 185.48 440.60 180.38 C 435.69 177.03 430.41 174.42 425.00 171.90 C 422.04 170.57 418.75 169.49 415.51 170.50 C 406.53 173.89 400.27 181.23 392.06 185.06 C 386.06 187.99 380.45 191.97 376.07 197.04 C 369.18 205.32 363.31 215.47 361.42 226.18 C 357.63 246.63 356.79 267.25 357.61 287.99 C 358.51 306.02 359.65 324.04 361.49 342.01 C 362.49 351.74 364.13 361.20 363.55 371.04 Z M 792.63 259.92 C 792.58 268.61 792.62 277.20 792.31 285.89 C 793.94 284.14 795.53 281.96 797.57 280.64 C 799.38 279.87 800.89 280.44 802.12 281.88 C 805.18 285.32 807.45 289.24 806.64 294.03 C 806.00 302.42 799.99 307.89 800.75 315.99 C 801.30 323.26 802.12 330.76 804.15 337.78 C 805.28 342.11 806.89 347.02 806.26 351.53 C 805.57 355.79 802.26 359.46 799.98 363.02 C 797.26 366.98 795.91 371.54 793.20 375.49 C 794.90 369.64 797.86 364.31 801.40 359.38 C 803.38 356.50 805.45 353.66 805.51 350.01 C 805.65 343.83 802.74 337.42 801.70 331.28 C 800.56 324.41 799.57 317.12 800.39 310.17 C 801.90 304.59 805.31 300.06 805.73 294.01 C 806.51 289.29 804.20 285.20 800.97 281.99 C 799.81 280.78 798.27 281.02 797.09 282.05 C 795.28 283.63 793.09 285.78 792.44 288.14 C 792.00 293.41 792.42 298.75 792.18 304.04 C 791.46 319.76 791.93 335.30 790.42 351.03 C 789.77 356.72 789.61 362.00 785.00 366.06 C 785.60 368.91 786.29 371.73 787.03 374.55 C 791.11 390.33 794.12 406.37 795.61 422.60 C 798.52 416.55 802.28 412.05 804.00 405.58 C 806.00 398.78 805.68 391.86 804.35 384.97 C 803.18 379.13 803.17 373.54 804.87 367.80 C 808.27 355.82 809.50 343.42 809.37 331.00 C 809.51 319.05 808.99 306.86 810.27 295.06 C 810.64 286.29 811.32 275.66 805.98 268.12 C 802.58 263.25 797.76 262.14 792.63 259.92 Z M 632.30 355.11 C 634.10 356.34 636.36 357.42 637.72 359.15 C 639.88 362.66 637.29 367.95 632.96 367.68 C 628.87 367.92 626.38 363.34 627.92 359.81 C 628.97 358.12 630.50 356.66 631.81 355.17 C 627.38 355.99 621.64 357.17 619.53 361.71 C 617.19 368.09 621.04 375.55 627.12 378.15 C 633.16 379.71 638.91 377.25 643.84 373.91 C 647.40 371.35 649.52 367.42 649.56 363.01 C 649.67 359.93 648.93 356.54 645.75 355.32 C 641.61 354.04 636.57 354.87 632.30 355.11 Z M 632.76 379.83 C 630.19 379.48 627.26 379.40 624.98 378.07 C 619.51 374.67 616.72 367.84 618.57 361.60 C 619.84 358.30 622.63 357.38 625.41 355.60 C 614.92 357.24 607.24 367.06 600.42 374.43 C 598.49 376.79 594.28 380.77 595.59 384.07 C 597.80 386.18 600.98 387.18 603.98 386.43 C 613.49 384.08 623.04 381.13 632.76 379.83 Z M 648.21 355.43 C 648.77 356.35 649.30 357.27 649.83 358.20 C 651.15 363.26 650.31 368.76 646.65 372.64 C 644.17 375.39 641.08 376.51 637.83 378.10 C 643.29 377.58 648.62 376.41 654.04 375.59 C 659.38 375.17 663.40 370.63 667.46 367.43 C 669.05 365.82 671.94 363.94 670.69 361.31 C 665.39 357.80 657.76 357.22 651.62 356.05 C 650.49 355.84 649.35 355.64 648.21 355.43 Z M 630.24 358.16 C 627.73 360.06 627.78 364.01 630.22 365.94 C 633.42 368.20 637.65 365.94 637.56 362.00 C 637.70 358.30 633.21 355.72 630.24 358.16 Z M 658.47 382.18 C 636.46 385.67 614.51 390.51 593.25 397.25 C 585.68 399.81 577.68 402.53 570.96 406.92 C 569.49 408.06 566.77 409.81 567.52 411.99 C 569.23 418.98 572.90 425.60 575.80 432.17 C 578.50 437.69 581.03 444.23 585.29 448.72 C 589.75 453.44 597.02 454.63 603.19 455.29 C 620.77 456.67 638.91 454.96 656.21 451.64 C 667.95 449.34 679.71 446.32 690.84 441.88 C 695.72 439.83 700.90 437.41 704.90 433.89 C 707.74 431.36 709.47 427.85 709.63 424.04 C 709.84 418.79 709.89 413.43 709.31 408.20 C 708.28 402.05 705.91 396.05 703.96 390.14 C 702.67 386.62 701.36 382.10 697.97 380.04 C 694.29 377.99 689.08 378.30 685.00 378.50 C 676.11 379.22 667.26 380.72 658.47 382.18 Z M 461.26 382.30 C 457.51 382.74 451.84 383.37 449.73 386.97 C 447.74 390.74 448.07 395.91 448.84 399.98 C 450.15 406.06 456.04 411.38 462.53 409.73 C 467.83 408.21 472.63 404.28 476.05 400.04 C 479.06 396.49 479.04 391.63 477.92 387.36 C 477.36 385.54 475.37 384.81 473.81 384.04 C 469.83 382.25 465.56 381.92 461.26 382.30 Z M 368.31 430.22 C 371.14 431.43 374.03 432.50 376.94 433.52 C 378.79 432.58 380.68 431.72 382.60 430.91 C 379.01 421.71 376.64 412.14 374.89 402.44 C 373.77 396.01 373.98 390.04 371.55 383.88 C 370.93 385.89 370.44 387.92 370.13 390.01 C 368.73 400.33 367.34 410.62 366.97 421.05 C 367.09 424.15 368.25 427.08 368.31 430.22 Z M 385.88 438.29 C 387.00 444.01 388.93 450.07 388.86 455.88 L 388.86 456.93 C 387.50 450.64 386.36 444.30 385.02 438.00 C 382.72 438.75 382.31 438.74 381.90 441.17 C 380.72 450.78 385.18 461.41 389.57 469.80 C 389.93 470.52 390.29 471.25 390.65 471.97 C 390.61 469.78 390.56 467.60 390.63 465.41 C 391.24 468.17 391.46 471.06 392.31 473.76 C 393.53 476.55 395.79 478.97 397.66 481.36 C 399.78 483.82 401.87 486.58 404.49 488.52 C 406.46 489.64 408.97 489.94 411.19 490.26 C 424.41 491.59 436.95 490.01 449.97 487.96 C 464.34 485.62 478.76 482.27 492.98 479.07 C 496.42 478.22 500.48 477.42 503.43 475.40 C 506.47 473.22 507.76 469.04 508.48 465.55 C 510.21 456.76 509.25 446.90 508.78 438.00 C 508.62 434.99 508.74 431.88 508.22 428.91 C 507.06 426.58 505.00 424.64 502.92 423.11 C 499.26 420.50 494.33 420.37 490.00 420.38 C 481.32 420.56 472.59 421.88 463.99 423.02 C 445.80 425.70 427.87 428.50 409.98 432.82 C 401.97 434.78 393.97 436.68 385.88 438.29 Z M 366.96 435.21 C 366.72 437.83 366.46 440.46 366.23 443.09 C 369.00 442.54 371.77 441.95 374.53 441.35 C 374.64 440.22 374.75 439.09 374.86 437.96 C 372.22 437.04 369.60 436.11 366.96 435.21 Z M 649.51 764.74 C 652.80 771.33 651.37 778.94 651.68 786.34 C 649.94 786.21 648.45 786.35 647.26 784.80 C 643.23 779.08 642.53 772.25 644.01 765.52 C 641.39 765.76 638.76 766.00 636.13 766.25 C 635.79 768.05 635.26 769.98 635.37 771.82 C 636.42 775.40 640.84 777.93 640.35 781.98 C 639.60 791.66 639.60 801.30 639.85 811.00 C 640.43 825.62 640.58 840.25 640.37 854.87 C 647.46 855.50 654.49 855.30 661.60 855.59 C 662.94 849.99 662.29 844.66 662.06 839.00 C 661.23 823.55 660.78 807.86 658.63 792.52 C 658.03 787.32 655.62 782.47 657.48 777.44 C 658.78 773.50 658.96 769.52 658.86 765.40 C 655.75 765.15 652.63 764.94 649.51 764.74 Z M 644.54 766.58 C 643.34 772.35 644.27 777.70 647.01 782.86 C 647.74 784.25 648.67 784.94 650.12 785.50 C 651.61 783.21 650.97 779.66 650.97 777.02 C 650.66 773.75 650.93 769.64 649.35 766.69 C 647.85 764.80 646.37 766.08 644.54 766.58 Z M 1.86 778.66 C -0.02 783.77 0.72 788.70 0.65 794.00 C 0.62 814.42 0.70 834.85 0.61 855.27 C 8.71 859.99 17.47 863.64 26.25 866.87 C 39.34 871.67 52.95 874.28 65.97 879.20 C 75.04 882.57 83.69 886.66 92.49 890.63 C 96.06 892.26 99.80 893.33 103.60 894.27 C 104.36 887.87 104.31 881.43 104.81 875.01 C 105.98 863.36 107.22 851.50 110.53 840.22 C 111.45 837.01 112.94 834.09 114.53 831.18 C 114.57 829.37 114.25 827.32 114.77 825.57 C 115.66 823.96 117.01 822.57 118.17 821.17 C 115.53 818.60 113.06 816.06 109.99 813.97 C 105.10 810.57 98.81 808.63 93.21 806.66 C 81.83 802.83 71.13 797.90 60.36 792.62 C 57.72 791.21 54.52 789.69 52.64 787.31 C 51.99 785.26 52.28 784.21 54.45 783.53 C 60.17 782.21 65.41 787.25 68.37 791.57 C 65.05 789.27 61.80 784.91 57.71 784.32 C 55.47 784.38 52.40 783.58 53.47 787.03 C 55.13 788.72 57.07 789.86 59.13 790.99 C 72.61 797.97 86.60 803.71 101.00 808.49 C 111.78 803.47 122.32 798.25 129.75 788.60 C 118.50 789.16 106.88 786.71 96.00 784.02 C 84.64 781.67 72.60 780.75 61.04 779.76 C 47.78 779.27 34.48 779.31 21.21 779.11 C 14.75 778.67 8.34 778.44 1.86 778.66 Z M 130.62 788.14 C 128.55 792.23 125.26 794.92 121.77 797.74 C 115.90 802.33 108.84 805.79 102.11 808.93 C 108.76 811.60 114.73 815.39 118.85 821.38 C 124.45 817.76 130.47 815.83 136.76 813.79 C 144.51 811.34 152.49 809.85 160.55 808.89 C 166.27 808.03 171.54 807.99 176.77 805.26 C 174.02 801.00 171.30 796.71 168.53 792.47 C 164.40 786.23 156.00 784.11 149.01 783.20 C 141.71 782.27 137.33 786.29 130.62 788.14 Z M 115.41 830.00 C 120.14 831.65 124.33 834.39 129.07 836.03 C 139.62 839.78 150.72 842.21 161.75 844.10 C 174.57 846.54 187.54 848.27 200.49 849.79 C 210.31 850.99 220.15 851.33 229.99 852.25 C 262.31 852.97 294.68 853.11 327.01 852.35 C 331.12 852.23 335.28 851.58 339.41 851.10 C 339.43 850.55 339.44 850.00 339.45 849.45 C 339.50 849.89 339.54 850.33 339.59 850.77 C 350.11 850.14 361.65 848.25 370.90 842.96 C 373.17 841.55 376.45 838.98 375.32 835.94 C 373.71 833.31 370.48 831.68 367.79 830.35 C 361.43 827.36 354.66 825.13 348.00 822.90 C 328.87 816.73 310.14 811.40 290.03 809.54 C 261.27 806.99 231.87 807.74 203.00 807.60 C 189.73 807.74 177.16 807.15 164.02 809.29 C 150.11 810.78 136.56 813.79 123.77 819.59 C 120.85 821.02 117.10 822.91 115.51 825.88 C 115.41 827.25 115.37 828.62 115.41 830.00 Z M 0.68 856.65 C 0.57 886.57 0.76 916.50 0.54 946.42 C 9.96 950.86 19.62 954.77 29.14 959.00 C 37.92 962.62 46.80 966.89 55.99 969.31 C 65.49 971.86 75.37 969.84 85.00 969.53 C 91.54 969.15 97.99 969.60 104.50 968.68 C 102.87 944.22 103.30 919.55 103.60 895.05 C 99.12 894.47 94.36 891.40 89.96 892.56 C 86.37 893.16 82.11 894.10 78.52 893.21 C 75.04 892.16 72.75 888.17 69.48 886.45 C 65.86 884.56 61.99 883.83 58.57 881.32 C 55.18 878.87 53.42 875.64 49.07 874.68 C 43.02 873.27 37.11 870.91 31.05 869.79 C 25.47 870.71 20.94 872.81 15.23 870.57 C 10.13 868.46 8.26 863.84 5.33 859.63 C 4.35 858.01 2.29 857.50 0.68 856.65 Z M 375.21 893.50 C 373.55 908.31 372.39 923.18 370.62 937.99 C 370.23 941.47 369.27 945.48 369.96 948.94 C 371.83 951.43 376.35 951.80 379.21 952.23 C 396.98 953.83 415.15 953.11 433.00 953.16 C 475.12 952.39 516.93 952.75 559.00 953.54 C 563.67 953.63 568.38 953.97 573.04 953.75 C 574.96 953.57 576.77 953.57 578.09 951.96 C 578.61 949.74 578.48 947.26 578.36 944.99 C 576.71 923.37 576.02 901.65 575.56 879.96 C 575.34 876.41 574.99 872.37 572.16 869.84 C 569.21 867.16 564.55 866.10 560.76 865.28 C 547.71 862.82 534.23 861.85 521.01 860.76 C 484.22 858.19 446.88 856.89 410.01 858.27 C 401.34 858.55 392.67 858.79 383.99 858.75 C 382.24 858.91 379.46 858.67 378.47 860.45 C 377.60 862.05 377.70 864.22 377.50 866.00 C 377.09 875.20 375.63 884.29 375.21 893.50 Z M 6.31 859.59 C 7.10 860.86 7.91 862.14 8.72 863.40 C 10.67 866.17 12.82 868.85 16.13 869.99 C 20.79 871.46 25.36 870.15 29.94 869.12 C 23.37 866.80 16.92 864.29 10.58 861.39 C 9.16 860.78 7.74 860.18 6.31 859.59 Z M 54.17 876.22 C 55.11 877.17 56.07 878.11 57.04 879.03 C 60.52 882.24 64.67 883.37 68.90 885.18 C 72.70 886.74 74.60 890.37 78.07 892.15 C 82.29 893.42 87.58 892.14 91.81 891.32 C 80.91 886.31 69.91 881.16 58.49 877.50 C 57.05 877.07 55.61 876.64 54.17 876.22 Z M 850.21 927.01 C 850.34 939.42 850.99 951.86 851.81 964.25 C 858.43 964.32 864.99 963.67 871.60 963.59 C 871.90 961.06 872.13 958.54 872.00 955.99 C 871.48 945.45 871.82 934.86 871.28 924.31 C 864.25 925.01 857.13 925.58 850.21 927.01 Z M 0.59 947.83 C 0.56 956.89 0.56 965.94 0.45 975.00 C 0.36 978.39 1.03 981.65 1.33 985.00 C 1.56 989.39 1.38 993.79 1.51 998.19 C 12.81 999.60 24.08 1001.17 35.43 1002.15 C 47.19 1003.11 58.46 1005.94 69.98 1008.31 C 77.16 1009.87 84.72 1010.06 92.03 1009.43 C 97.58 1008.91 102.49 1006.88 107.68 1005.02 C 106.15 993.27 104.88 981.45 104.38 969.61 C 95.26 970.47 86.12 970.08 77.00 970.89 C 70.28 971.50 63.68 972.02 57.04 970.45 C 50.37 968.90 43.78 966.10 37.47 963.46 C 25.10 958.45 13.06 952.57 0.59 947.83 Z M 506.55 983.79 C 510.28 981.54 514.78 979.90 517.99 976.94 C 517.74 974.80 517.03 972.74 516.33 970.71 C 514.29 965.02 512.42 959.28 510.14 953.68 C 506.86 953.85 502.17 953.33 499.44 955.42 C 496.65 957.52 497.60 961.07 498.18 963.98 C 500.05 970.88 503.12 977.53 506.55 983.79 Z" id="p3" />
<path d="M 621.99 146.86 C 635.44 146.32 649.01 147.22 662.24 149.76 C 669.38 151.27 676.60 152.95 682.49 157.49 C 688.80 162.32 694.30 168.52 699.46 174.53 C 705.71 181.91 711.12 189.64 714.11 198.94 C 717.85 209.37 718.50 220.10 722.90 230.10 C 725.72 236.58 729.56 242.52 734.11 247.91 C 742.50 257.58 749.66 268.41 755.35 279.87 C 751.59 292.89 748.11 306.12 743.84 318.99 C 742.34 322.88 740.77 326.69 739.71 330.74 C 736.13 341.47 731.47 351.85 727.69 362.51 C 726.14 366.99 723.80 371.08 720.12 374.14 C 716.51 377.27 712.37 378.67 707.94 380.18 C 705.96 377.68 704.25 375.21 701.38 373.64 C 698.48 371.99 695.29 371.41 692.00 371.26 C 681.18 370.79 670.85 372.96 660.23 374.49 C 663.67 371.56 667.56 368.90 670.60 365.55 C 672.17 364.07 671.45 362.10 671.65 360.13 C 676.76 361.87 682.01 364.13 687.37 364.90 C 682.39 362.58 676.97 361.15 671.77 359.43 C 660.03 355.69 648.42 352.75 636.00 352.90 C 626.15 353.24 615.90 354.90 606.84 358.91 C 597.88 362.98 592.34 369.86 586.00 377.01 C 584.66 378.55 583.56 380.24 582.57 382.02 C 588.59 376.09 593.13 369.26 600.02 364.04 C 606.22 359.21 613.30 357.15 620.84 355.37 C 611.14 360.55 604.56 368.34 597.48 376.50 C 596.08 378.34 593.92 381.12 594.42 383.58 C 595.41 385.41 597.72 386.59 599.32 387.86 C 589.99 390.47 580.64 393.58 571.96 397.94 C 568.34 399.86 564.08 402.28 561.75 405.75 C 560.28 407.88 560.36 410.56 560.07 413.03 C 550.81 412.66 541.62 412.30 532.53 414.50 C 525.75 416.24 519.09 419.36 512.88 422.56 C 509.59 419.04 506.33 415.88 501.58 414.46 C 494.55 412.35 486.17 413.45 478.94 413.69 C 483.70 411.04 488.86 408.57 493.13 405.15 C 494.85 403.61 497.01 401.79 496.52 399.21 C 495.86 396.40 492.70 394.18 490.45 392.63 C 484.34 388.74 478.16 385.01 471.67 381.79 C 478.08 382.56 484.32 383.98 490.21 386.65 C 494.52 388.50 498.26 391.29 502.53 393.18 C 493.25 385.22 480.09 381.29 468.02 380.72 C 458.99 380.28 449.82 382.93 441.67 386.67 C 436.43 389.07 430.89 391.64 426.77 395.77 C 423.47 399.10 420.36 403.00 418.48 407.33 C 419.59 405.91 420.68 404.47 421.74 403.01 C 421.83 406.10 420.96 408.61 422.77 411.26 C 425.33 415.16 430.59 417.39 435.15 417.57 C 435.73 418.40 436.31 419.23 436.89 420.06 C 422.60 422.11 408.13 425.84 394.08 429.16 C 390.57 429.99 387.09 430.60 383.51 431.00 C 378.76 418.48 375.72 405.28 374.46 391.96 C 374.22 387.19 371.24 383.46 371.24 378.66 C 370.19 378.26 369.13 377.86 368.07 377.47 C 366.60 375.31 365.10 373.16 363.55 371.04 C 364.13 361.20 362.49 351.74 361.49 342.01 C 359.65 324.04 358.51 306.02 357.61 287.99 C 356.79 267.25 357.63 246.63 361.42 226.18 C 363.31 215.47 369.18 205.32 376.07 197.04 C 380.45 191.97 386.06 187.99 392.06 185.06 C 400.27 181.23 406.53 173.89 415.51 170.50 C 418.75 169.49 422.04 170.57 425.00 171.90 C 430.41 174.42 435.69 177.03 440.60 180.38 C 448.12 185.48 457.75 188.12 466.51 190.19 C 474.75 191.97 483.56 193.84 492.01 193.29 C 498.90 192.90 505.15 190.56 511.76 188.79 C 524.31 185.50 536.90 182.34 549.53 179.33 C 560.07 176.77 569.59 171.83 578.03 165.05 C 584.85 159.46 591.87 154.51 600.01 151.00 C 607.03 148.06 614.46 147.28 621.99 146.86 Z M 661.01 331.77 C 672.79 332.46 683.87 335.32 695.46 336.96 C 698.60 337.35 701.97 337.77 705.11 337.28 C 706.43 336.77 707.17 335.89 707.62 334.58 C 709.08 330.31 708.53 325.09 705.14 321.86 C 700.82 317.56 693.82 316.35 688.00 315.74 C 676.75 314.81 665.26 315.36 653.98 315.74 C 641.41 316.49 629.36 316.97 617.06 320.04 C 606.66 322.66 596.49 326.67 586.47 330.47 C 577.77 333.89 568.48 337.52 560.68 342.71 C 557.33 344.99 553.51 348.18 552.18 352.12 C 551.18 355.11 551.68 358.66 554.55 360.40 C 557.30 362.03 561.13 361.00 563.96 360.01 C 570.98 357.41 577.62 353.56 584.42 350.41 C 600.79 342.62 618.21 337.37 635.98 333.90 C 644.30 332.34 652.52 331.26 661.01 331.77 Z M 387.65 392.93 C 394.20 391.01 398.35 386.65 403.31 382.30 C 408.42 377.73 412.36 372.64 418.79 369.82 C 427.61 365.89 436.57 365.96 446.01 366.76 C 457.37 367.89 468.67 368.29 479.99 369.78 C 484.36 370.05 491.16 372.04 494.88 369.19 C 494.43 366.81 492.80 365.40 491.06 363.92 C 478.65 354.42 463.44 350.55 447.96 350.91 C 435.84 351.37 423.53 352.75 411.77 355.82 C 404.67 357.79 397.18 360.51 392.09 366.10 C 386.57 372.23 384.31 380.90 385.52 389.00 C 385.83 390.41 386.91 391.71 387.65 392.93 Z" id="p4" />
<path d="M 792.63 259.92 C 797.76 262.14 802.58 263.25 805.98 268.12 C 811.32 275.66 810.64 286.29 810.27 295.06 C 808.99 306.86 809.51 319.05 809.37 331.00 C 809.50 343.42 808.27 355.82 804.87 367.80 C 803.17 373.54 803.18 379.13 804.35 384.97 C 805.68 391.86 806.00 398.78 804.00 405.58 C 802.28 412.05 798.52 416.55 795.61 422.60 C 794.12 406.37 791.11 390.33 787.03 374.55 C 786.29 371.73 785.60 368.91 785.00 366.06 C 789.61 362.00 789.77 356.72 790.42 351.03 C 791.93 335.30 791.46 319.76 792.18 304.04 C 792.42 298.75 792.00 293.41 792.44 288.14 C 793.09 285.78 795.28 283.63 797.09 282.05 C 798.27 281.02 799.81 280.78 800.97 281.99 C 804.20 285.20 806.51 289.29 805.73 294.01 C 805.31 300.06 801.90 304.59 800.39 310.17 C 799.57 317.12 800.56 324.41 801.70 331.28 C 802.74 337.42 805.65 343.83 805.51 350.01 C 805.45 353.66 803.38 356.50 801.40 359.38 C 797.86 364.31 794.90 369.64 793.20 375.49 C 795.91 371.54 797.26 366.98 799.98 363.02 C 802.26 359.46 805.57 355.79 806.26 351.53 C 806.89 347.02 805.28 342.11 804.15 337.78 C 802.12 330.76 801.30 323.26 800.75 315.99 C 799.99 307.89 806.00 302.42 806.64 294.03 C 807.45 289.24 805.18 285.32 802.12 281.88 C 800.89 280.44 799.38 279.87 797.57 280.64 C 795.53 281.96 793.94 284.14 792.31 285.89 C 792.62 277.20 792.58 268.61 792.63 259.92 Z" id="p5" />
<path d="M 759.89 290.77 L 760.05 291.24 C 764.58 304.08 767.59 317.53 770.60 330.80 C 772.77 340.33 774.36 350.72 778.37 359.67 C 779.55 362.46 781.64 364.29 784.01 366.05 C 788.63 383.89 792.80 401.59 794.45 420.00 C 796.02 436.94 795.83 454.11 794.37 471.04 C 793.05 481.24 791.41 491.39 790.09 501.58 C 789.24 509.16 785.94 516.43 783.96 523.91 C 778.94 541.79 772.19 559.15 763.73 575.68 C 755.43 592.31 744.77 607.58 732.53 621.53 C 725.64 629.61 718.32 637.31 710.42 644.41 C 700.21 653.57 689.51 662.69 677.82 669.90 C 664.81 677.18 650.59 682.98 635.92 685.81 C 627.06 687.45 618.02 688.55 609.00 688.52 C 584.66 689.13 559.51 681.43 536.74 673.37 C 530.69 671.40 525.79 668.06 520.29 664.99 L 520.19 664.93 C 515.34 661.02 510.06 657.63 504.89 654.16 C 499.84 650.71 494.55 649.20 490.07 644.93 C 481.13 636.42 471.59 628.91 462.98 620.02 C 445.42 602.71 431.10 580.69 417.94 559.93 C 414.78 555.22 413.05 549.64 410.51 544.47 C 405.33 532.95 399.85 521.26 396.46 509.07 C 394.43 502.09 394.25 495.03 393.50 487.85 C 395.79 490.19 398.12 493.32 401.02 494.97 C 403.96 496.59 407.66 497.14 410.97 497.47 C 415.68 497.88 420.26 498.32 424.99 497.95 C 448.12 496.96 471.88 491.21 494.47 486.18 C 499.07 485.21 503.36 483.82 507.57 481.68 C 505.29 487.69 504.19 494.92 505.80 501.20 C 508.64 508.49 516.54 512.82 524.02 513.66 C 531.40 514.20 538.78 513.94 546.10 512.80 C 550.48 513.15 554.45 514.92 558.99 514.35 C 566.80 513.73 572.32 508.88 577.57 503.57 C 581.95 498.96 586.81 495.03 592.81 492.76 C 597.69 490.65 602.93 490.64 607.85 488.72 C 597.97 489.41 588.45 492.21 581.02 499.02 C 575.32 504.29 570.57 510.44 562.77 512.78 C 555.74 514.59 547.30 512.94 541.49 508.52 C 538.89 506.72 535.96 504.19 532.82 503.53 C 527.54 502.65 521.79 504.31 517.35 507.19 C 523.02 505.78 528.12 502.76 534.11 504.82 C 538.14 506.70 541.54 509.87 545.37 512.15 C 538.13 512.89 531.37 513.91 524.07 512.81 C 517.77 511.93 511.83 509.17 508.13 503.83 C 505.57 500.12 505.35 495.37 506.00 491.04 C 506.83 486.26 507.79 481.77 510.96 477.94 C 514.88 472.97 515.99 466.49 516.48 460.35 C 517.10 450.15 515.98 439.43 515.72 429.20 C 523.61 425.30 532.08 421.07 540.98 420.42 C 548.15 419.93 555.40 420.27 562.57 420.44 C 566.14 428.73 569.87 436.97 574.00 445.00 C 576.83 450.44 580.32 455.24 585.86 458.16 C 593.95 462.49 604.00 462.64 612.92 463.22 C 615.76 468.67 619.56 474.81 620.36 480.96 C 621.06 486.84 616.39 491.10 611.79 493.83 C 604.68 498.27 597.00 499.38 589.22 501.84 C 596.33 501.44 603.49 498.93 609.90 495.89 C 615.29 493.10 621.31 488.73 621.30 482.00 C 620.88 475.46 616.94 468.81 613.80 463.19 C 628.80 463.04 643.76 461.51 658.48 458.60 C 671.79 455.86 685.36 452.43 697.75 446.76 C 704.36 443.65 711.48 439.55 714.75 432.69 C 718.03 425.90 717.05 417.29 716.69 410.00 C 716.41 403.89 714.41 398.62 712.55 392.87 C 717.91 389.78 723.86 386.63 728.26 382.26 C 732.12 378.48 734.84 373.87 736.86 368.88 C 740.06 361.00 742.21 352.50 744.26 344.25 C 745.74 338.38 746.74 332.49 748.86 326.78 C 753.06 314.92 756.30 302.81 759.89 290.77 Z M 662.92 525.91 C 658.12 528.71 653.47 531.78 648.80 534.78 C 644.92 537.42 640.67 537.44 636.19 538.40 C 628.84 539.80 621.57 542.97 614.46 545.43 C 606.41 548.29 598.26 549.94 590.38 553.35 C 586.19 555.01 582.67 557.17 578.01 557.01 C 569.54 556.84 561.35 556.45 552.95 557.97 C 542.62 559.58 534.76 564.57 524.01 564.17 C 517.62 564.28 513.79 560.57 507.63 559.15 C 509.21 563.33 515.78 563.40 519.12 565.78 C 520.56 568.15 521.30 570.67 523.13 572.87 C 526.35 576.68 530.95 579.51 535.46 581.53 C 545.99 586.18 557.55 588.44 569.00 589.03 C 581.66 589.20 593.50 585.96 605.09 581.10 C 615.88 576.57 626.62 571.38 634.89 562.89 C 643.90 553.73 653.12 543.86 659.86 532.88 C 661.96 529.35 665.03 527.03 667.58 523.85 C 666.01 524.49 664.45 525.18 662.92 525.91 Z M 691.21 626.37 C 688.10 630.68 687.22 635.86 684.32 640.32 C 678.47 649.65 669.40 657.06 659.24 661.25 C 654.92 663.08 650.53 664.34 646.07 665.76 C 647.33 663.96 648.57 662.15 649.74 660.30 C 646.07 662.97 642.89 665.92 638.59 667.63 C 622.41 674.29 605.26 677.84 587.75 675.38 C 573.18 673.15 558.80 668.38 546.02 660.99 C 532.38 653.07 521.80 642.27 511.02 630.96 C 508.31 628.19 506.55 625.14 502.93 623.54 C 503.85 625.09 504.90 626.55 506.12 627.88 C 514.86 637.03 523.08 645.98 533.05 653.92 C 548.64 666.40 568.32 674.02 587.98 676.93 C 602.77 679.37 618.52 676.36 632.55 671.55 C 644.08 666.90 655.43 665.79 666.38 659.40 C 678.37 652.57 689.03 640.28 691.21 626.37 Z" id="p6" />
<path d="M 653.98 315.74 C 665.26 315.36 676.75 314.81 688.00 315.74 C 693.82 316.35 700.82 317.56 705.14 321.86 C 708.53 325.09 709.08 330.31 707.62 334.58 C 707.17 335.89 706.43 336.77 705.11 337.28 C 701.97 337.77 698.60 337.35 695.46 336.96 C 683.87 335.32 672.79 332.46 661.01 331.77 C 652.52 331.26 644.30 332.34 635.98 333.90 C 618.21 337.37 600.79 342.62 584.42 350.41 C 577.62 353.56 570.98 357.41 563.96 360.01 C 561.13 361.00 557.30 362.03 554.55 360.40 C 551.68 358.66 551.18 355.11 552.18 352.12 C 553.51 348.18 557.33 344.99 560.68 342.71 C 568.48 337.52 577.77 333.89 586.47 330.47 C 596.49 326.67 606.66 322.66 617.06 320.04 C 629.36 316.97 641.41 316.49 653.98 315.74 Z" id="p7" />
<path d="M 447.96 350.91 C 463.44 350.55 478.65 354.42 491.06 363.92 C 492.80 365.40 494.43 366.81 494.88 369.19 C 491.16 372.04 484.36 370.05 479.99 369.78 C 468.67 368.29 457.37 367.89 446.01 366.76 C 436.57 365.96 427.61 365.89 418.79 369.82 C 412.36 372.64 408.42 377.73 403.31 382.30 C 398.35 386.65 394.20 391.01 387.65 392.93 C 386.91 391.71 385.83 390.41 385.52 389.00 C 384.31 380.90 386.57 372.23 392.09 366.10 C 397.18 360.51 404.67 357.79 411.77 355.82 C 423.53 352.75 435.84 351.37 447.96 350.91 Z" id="p8" />
<path d="M 632.30 355.11 C 636.57 354.87 641.61 354.04 645.75 355.32 C 648.93 356.54 649.67 359.93 649.56 363.01 C 649.52 367.42 647.40 371.35 643.84 373.91 C 638.91 377.25 633.16 379.71 627.12 378.15 C 621.04 375.55 617.19 368.09 619.53 361.71 C 621.64 357.17 627.38 355.99 631.81 355.17 C 630.50 356.66 628.97 358.12 627.92 359.81 C 626.38 363.34 628.87 367.92 632.96 367.68 C 637.29 367.95 639.88 362.66 637.72 359.15 C 636.36 357.42 634.10 356.34 632.30 355.11 Z" id="p9" />
<path d="M 625.41 355.60 C 622.63 357.38 619.84 358.30 618.57 361.60 C 616.72 367.84 619.51 374.67 624.98 378.07 C 627.26 379.40 630.19 379.48 632.76 379.83 C 623.04 381.13 613.49 384.08 603.98 386.43 C 600.98 387.18 597.80 386.18 595.59 384.07 C 594.28 380.77 598.49 376.79 600.42 374.43 C 607.24 367.06 614.92 357.24 625.41 355.60 Z" id="p10" />
<path d="M 648.21 355.43 C 649.35 355.64 650.49 355.84 651.62 356.05 C 657.76 357.22 665.39 357.80 670.69 361.31 C 671.94 363.94 669.05 365.82 667.46 367.43 C 663.40 370.63 659.38 375.17 654.04 375.59 C 648.62 376.41 643.29 377.58 637.83 378.10 C 641.08 376.51 644.17 375.39 646.65 372.64 C 650.31 368.76 651.15 363.26 649.83 358.20 C 649.30 357.27 648.77 356.35 648.21 355.43 Z" id="p11" />
<path d="M 630.24 358.16 C 633.21 355.72 637.70 358.30 637.56 362.00 C 637.65 365.94 633.42 368.20 630.22 365.94 C 627.78 364.01 627.73 360.06 630.24 358.16 Z" id="p12" />
<path d="M 685.00 378.50 C 689.08 378.30 694.29 377.99 697.97 380.04 C 701.36 382.10 702.67 386.62 703.96 390.14 C 705.91 396.05 708.28 402.05 709.31 408.20 C 709.89 413.43 709.84 418.79 709.63 424.04 C 709.47 427.85 707.74 431.36 704.90 433.89 C 700.90 437.41 695.72 439.83 690.84 441.88 C 679.71 446.32 667.95 449.34 656.21 451.64 C 638.91 454.96 620.77 456.67 603.19 455.29 C 597.02 454.63 589.75 453.44 585.29 448.72 C 581.03 444.23 578.50 437.69 575.80 432.17 C 572.90 425.60 569.23 418.98 567.52 411.99 C 566.77 409.81 569.49 408.06 570.96 406.92 C 577.68 402.53 585.68 399.81 593.25 397.25 C 614.51 390.51 636.46 385.67 658.47 382.18 C 667.26 380.72 676.11 379.22 685.00 378.50 Z" id="p13" />
<path d="M 461.26 382.30 C 465.56 381.92 469.83 382.25 473.81 384.04 C 475.37 384.81 477.36 385.54 477.92 387.36 C 479.04 391.63 479.06 396.49 476.05 400.04 C 472.63 404.28 467.83 408.21 462.53 409.73 C 456.04 411.38 450.15 406.06 448.84 399.98 C 448.07 395.91 447.74 390.74 449.73 386.97 C 451.84 383.37 457.51 382.74 461.26 382.30 Z M 460.65 389.79 C 459.58 393.49 459.93 394.98 462.63 397.68 C 462.50 398.24 462.37 398.80 462.24 399.35 C 465.17 398.95 467.61 399.17 469.39 396.39 C 472.18 392.32 468.91 386.42 463.99 386.75 C 461.68 386.67 461.64 388.16 460.65 389.79 Z" id="p14" />
<path d="M 371.55 383.88 C 373.98 390.04 373.77 396.01 374.89 402.44 C 376.64 412.14 379.01 421.71 382.60 430.91 C 380.68 431.72 378.79 432.58 376.94 433.52 C 374.03 432.50 371.14 431.43 368.31 430.22 C 368.25 427.08 367.09 424.15 366.97 421.05 C 367.34 410.62 368.73 400.33 370.13 390.01 C 370.44 387.92 370.93 385.89 371.55 383.88 Z" id="p15" />
<path d="M 449.72 385.02 C 446.19 391.16 446.55 399.71 450.41 405.59 C 453.74 410.38 459.46 412.17 464.89 409.90 C 469.75 407.63 474.54 404.01 477.53 399.52 C 480.22 395.25 479.41 391.03 478.62 386.36 C 483.38 389.55 488.80 392.09 493.15 395.82 C 494.94 397.44 496.57 399.48 495.04 401.90 C 492.56 405.29 488.09 407.51 484.53 409.64 C 481.29 411.39 477.75 413.90 474.07 414.35 C 467.42 415.25 460.75 416.07 454.13 417.20 C 448.87 418.03 443.67 417.70 438.39 417.26 C 433.13 416.72 427.93 415.89 424.22 411.73 C 421.95 409.29 421.91 405.30 423.51 402.51 C 425.61 398.82 429.12 395.94 432.59 393.59 C 437.94 389.95 443.76 387.44 449.72 385.02 Z" id="p16" />
<path d="M 463.99 386.75 C 468.91 386.42 472.18 392.32 469.39 396.39 C 467.61 399.17 465.17 398.95 462.24 399.35 C 462.37 398.80 462.50 398.24 462.63 397.68 C 464.65 397.37 466.47 397.60 467.82 395.78 C 469.74 393.40 468.72 389.90 465.98 388.70 C 464.02 387.73 462.42 389.04 460.65 389.79 C 461.64 388.16 461.68 386.67 463.99 386.75 Z" id="p17" />
<path d="M 465.98 388.70 C 468.72 389.90 469.74 393.40 467.82 395.78 C 466.47 397.60 464.65 397.37 462.63 397.68 C 459.93 394.98 459.58 393.49 460.65 389.79 C 462.42 389.04 464.02 387.73 465.98 388.70 Z" id="p18" />
<path d="M 438.39 417.26 C 443.67 417.70 448.87 418.03 454.13 417.20 C 448.33 418.22 442.57 418.27 436.89 420.06 C 436.31 419.23 435.73 418.40 435.15 417.57 C 436.23 417.47 437.31 417.36 438.39 417.26 Z" id="p19" />
<path d="M 490.00 420.38 C 494.33 420.37 499.26 420.50 502.92 423.11 C 505.00 424.64 507.06 426.58 508.22 428.91 C 508.74 431.88 508.62 434.99 508.78 438.00 C 509.25 446.90 510.21 456.76 508.48 465.55 C 507.76 469.04 506.47 473.22 503.43 475.40 C 500.48 477.42 496.42 478.22 492.98 479.07 C 478.76 482.27 464.34 485.62 449.97 487.96 C 436.95 490.01 424.41 491.59 411.19 490.26 C 408.97 489.94 406.46 489.64 404.49 488.52 C 401.87 486.58 399.78 483.82 397.66 481.36 C 395.79 478.97 393.53 476.55 392.31 473.76 C 391.46 471.06 391.24 468.17 390.63 465.41 C 390.56 467.60 390.61 469.78 390.65 471.97 C 390.29 471.25 389.93 470.52 389.57 469.80 C 389.51 465.50 388.95 461.23 388.86 456.93 L 388.86 455.88 C 388.93 450.07 387.00 444.01 385.88 438.29 C 393.97 436.68 401.97 434.78 409.98 432.82 C 427.87 428.50 445.80 425.70 463.99 423.02 C 472.59 421.88 481.32 420.56 490.00 420.38 Z" id="p20" />
<path d="M 366.96 435.21 C 369.60 436.11 372.22 437.04 374.86 437.96 C 374.75 439.09 374.64 440.22 374.53 441.35 C 371.77 441.95 369.00 442.54 366.23 443.09 C 366.46 440.46 366.72 437.83 366.96 435.21 Z" id="p21" />
<path d="M 385.02 438.00 C 386.36 444.30 387.50 450.64 388.86 456.93 C 388.95 461.23 389.51 465.50 389.57 469.80 C 385.18 461.41 380.72 450.78 381.90 441.17 C 382.31 438.74 382.72 438.75 385.02 438.00 Z" id="p22" />
<path d="M 789.96 510.08 C 792.03 515.62 792.44 521.23 793.31 527.02 C 795.30 539.76 795.64 553.17 793.04 565.85 C 789.79 582.57 783.65 598.95 776.26 614.27 C 767.43 632.33 756.79 649.58 744.39 665.41 C 737.62 673.98 730.51 682.06 722.37 689.36 C 720.94 690.60 719.41 691.88 717.73 692.77 C 700.05 700.70 681.16 703.66 662.00 705.45 C 641.99 707.24 621.70 706.44 602.00 702.35 C 578.99 697.49 557.85 688.20 537.59 676.43 L 536.71 675.89 L 534.30 673.46 C 552.47 679.78 570.03 685.66 589.23 688.23 C 604.38 690.28 619.99 689.62 635.00 686.85 C 651.42 683.91 667.42 677.03 681.79 668.69 C 698.28 658.99 712.82 644.72 725.61 630.61 C 735.05 620.37 744.11 609.51 751.84 597.91 C 766.62 575.38 777.42 550.01 784.80 524.14 C 786.22 519.30 787.45 514.51 789.96 510.08 Z" id="p23" />
<path d="M 861.95 520.32 L 863.47 519.84 C 865.28 523.23 867.54 526.37 869.24 529.81 C 871.26 533.98 871.09 538.47 871.05 543.00 C 870.92 552.78 868.76 562.20 868.97 572.00 C 868.85 577.21 869.67 582.71 868.74 587.84 C 867.44 592.67 864.12 597.17 861.20 601.18 C 849.95 615.95 835.89 629.71 825.19 645.15 C 818.32 655.03 813.25 665.19 805.62 674.58 C 798.11 683.76 789.24 691.79 779.36 698.34 C 768.31 705.71 755.84 711.28 743.80 716.84 C 719.64 727.79 696.02 740.28 673.85 754.85 C 671.04 756.51 668.07 759.66 664.67 759.35 C 665.26 758.54 665.79 757.70 666.42 756.93 C 670.89 755.77 673.74 752.94 677.62 750.62 C 692.34 741.41 707.55 732.84 723.08 725.06 C 739.49 716.79 756.93 710.02 772.79 700.78 C 784.60 693.78 795.52 684.84 804.15 674.13 C 812.36 664.14 817.70 653.12 825.38 642.41 C 835.24 628.69 847.54 616.21 858.00 603.00 C 861.17 598.87 864.60 594.47 866.63 589.65 C 868.56 585.21 867.75 580.68 867.57 576.00 C 867.02 566.42 868.68 557.72 869.25 548.21 C 869.62 542.65 870.22 536.14 868.14 530.84 C 866.55 527.11 863.82 523.94 861.95 520.32 Z" id="p24" />
<path d="M 667.58 523.85 C 665.03 527.03 661.96 529.35 659.86 532.88 C 653.12 543.86 643.90 553.73 634.89 562.89 C 626.62 571.38 615.88 576.57 605.09 581.10 C 593.50 585.96 581.66 589.20 569.00 589.03 C 557.55 588.44 545.99 586.18 535.46 581.53 C 530.95 579.51 526.35 576.68 523.13 572.87 C 521.30 570.67 520.56 568.15 519.12 565.78 C 515.78 563.40 509.21 563.33 507.63 559.15 C 513.79 560.57 517.62 564.28 524.01 564.17 C 534.76 564.57 542.62 559.58 552.95 557.97 C 561.35 556.45 569.54 556.84 578.01 557.01 C 582.67 557.17 586.19 555.01 590.38 553.35 C 598.26 549.94 606.41 548.29 614.46 545.43 C 621.57 542.97 628.84 539.80 636.19 538.40 C 640.67 537.44 644.92 537.42 648.80 534.78 C 653.47 531.78 658.12 528.71 662.92 525.91 C 664.45 525.18 666.01 524.49 667.58 523.85 Z M 655.69 532.78 C 646.49 538.13 637.59 543.94 628.56 549.55 C 618.27 555.91 607.55 561.59 596.48 566.47 C 588.94 569.76 581.27 572.36 573.01 572.99 C 560.40 573.93 547.45 572.88 534.99 570.82 C 530.33 570.10 525.92 568.64 521.41 567.32 C 524.95 574.58 531.45 578.41 538.70 581.27 C 554.66 587.33 572.40 589.52 589.05 585.01 C 600.63 581.86 612.39 576.88 622.69 570.71 C 630.51 566.02 635.94 559.63 642.13 553.13 C 648.70 546.20 654.62 538.71 659.60 530.56 C 658.29 531.29 656.99 532.03 655.69 532.78 Z M 523.12 566.14 C 531.89 569.38 540.72 570.30 549.96 571.19 C 559.71 572.19 569.81 572.43 579.48 570.58 C 586.81 569.12 594.09 565.96 600.88 562.87 C 615.34 556.14 629.17 547.86 642.33 538.86 C 632.90 539.96 624.43 543.44 615.58 546.61 C 607.29 549.64 598.87 551.33 590.79 554.80 C 586.17 556.65 582.19 559.02 577.01 558.54 C 569.06 557.72 561.17 558.33 553.29 559.45 C 547.59 560.36 542.36 562.29 536.86 563.90 C 532.33 565.24 527.79 565.63 523.12 566.14 Z" id="p25" />
<path d="M 659.60 530.56 C 654.62 538.71 648.70 546.20 642.13 553.13 C 635.94 559.63 630.51 566.02 622.69 570.71 C 612.39 576.88 600.63 581.86 589.05 585.01 C 572.40 589.52 554.66 587.33 538.70 581.27 C 531.45 578.41 524.95 574.58 521.41 567.32 C 525.92 568.64 530.33 570.10 534.99 570.82 C 547.45 572.88 560.40 573.93 573.01 572.99 C 581.27 572.36 588.94 569.76 596.48 566.47 C 607.55 561.59 618.27 555.91 628.56 549.55 C 637.59 543.94 646.49 538.13 655.69 532.78 C 656.99 532.03 658.29 531.29 659.60 530.56 Z" id="p26" />
<path d="M 642.33 538.86 C 629.17 547.86 615.34 556.14 600.88 562.87 C 594.09 565.96 586.81 569.12 579.48 570.58 C 569.81 572.43 559.71 572.19 549.96 571.19 C 540.72 570.30 531.89 569.38 523.12 566.14 C 527.79 565.63 532.33 565.24 536.86 563.90 C 542.36 562.29 547.59 560.36 553.29 559.45 C 561.17 558.33 569.06 557.72 577.01 558.54 C 582.19 559.02 586.17 556.65 590.79 554.80 C 598.87 551.33 607.29 549.64 615.58 546.61 C 624.43 543.44 632.90 539.96 642.33 538.86 Z" id="p27" />
<path d="M 1023.59 566.49 L 1024.00 568.19 L 1024.00 1024.00 L 1023.00 1024.00 C 1023.01 977.00 1022.99 930.00 1023.01 883.00 C 1023.14 878.08 1023.11 873.27 1022.11 868.42 C 1022.55 854.52 1023.06 840.66 1022.47 826.74 C 1022.66 824.49 1022.93 822.26 1023.00 820.00 C 1023.00 742.33 1023.00 664.67 1023.00 587.00 C 1023.08 580.11 1022.62 573.34 1023.59 566.49 Z" id="p28" />
<path d="M 502.93 623.54 C 506.55 625.14 508.31 628.19 511.02 630.96 C 521.80 642.27 532.38 653.07 546.02 660.99 C 558.80 668.38 573.18 673.15 587.75 675.38 C 605.26 677.84 622.41 674.29 638.59 667.63 C 642.89 665.92 646.07 662.97 649.74 660.30 C 648.57 662.15 647.33 663.96 646.07 665.76 C 650.53 664.34 654.92 663.08 659.24 661.25 C 669.40 657.06 678.47 649.65 684.32 640.32 C 687.22 635.86 688.10 630.68 691.21 626.37 C 689.03 640.28 678.37 652.57 666.38 659.40 C 655.43 665.79 644.08 666.90 632.55 671.55 C 618.52 676.36 602.77 679.37 587.98 676.93 C 568.32 674.02 548.64 666.40 533.05 653.92 C 523.08 645.98 514.86 637.03 506.12 627.88 C 504.90 626.55 503.85 625.09 502.93 623.54 Z" id="p29" />
<path d="M 498.02 651.92 C 498.86 652.05 499.70 652.20 500.52 652.38 C 507.25 656.27 513.14 661.69 520.19 664.93 L 520.29 664.99 C 524.82 669.48 530.82 673.45 536.71 675.89 L 537.59 676.43 C 539.22 677.82 540.80 679.23 542.66 680.32 C 568.83 694.87 596.93 704.83 627.01 706.62 C 635.48 707.30 643.94 707.61 652.43 706.92 C 668.73 706.09 685.18 704.03 700.95 699.76 C 707.32 698.12 713.18 695.15 719.59 693.62 C 718.29 695.93 716.93 698.19 715.27 700.26 C 699.52 719.57 681.99 737.48 666.42 756.93 C 665.79 757.70 665.26 758.54 664.67 759.35 C 662.86 760.92 661.30 763.66 659.08 764.51 C 655.38 764.55 651.77 763.46 648.02 763.56 C 642.62 763.70 637.34 766.19 631.98 766.26 C 628.69 765.75 625.48 763.99 622.53 762.49 C 612.62 757.10 603.32 750.33 593.88 744.16 C 578.06 733.60 560.52 723.27 546.60 710.40 C 536.51 701.19 528.73 690.46 520.16 679.86 C 513.97 672.08 507.37 664.65 501.08 656.95 C 499.82 655.41 498.70 653.81 498.02 651.92 Z" id="p30" />
<path d="M 649.51 764.74 C 652.63 764.94 655.75 765.15 658.86 765.40 C 658.96 769.52 658.78 773.50 657.48 777.44 C 655.62 782.47 658.03 787.32 658.63 792.52 C 660.78 807.86 661.23 823.55 662.06 839.00 C 662.29 844.66 662.94 849.99 661.60 855.59 C 654.49 855.30 647.46 855.50 640.37 854.87 C 640.58 840.25 640.43 825.62 639.85 811.00 C 639.60 801.30 639.60 791.66 640.35 781.98 C 640.84 777.93 636.42 775.40 635.37 771.82 C 635.26 769.98 635.79 768.05 636.13 766.25 C 638.76 766.00 641.39 765.76 644.01 765.52 C 642.53 772.25 643.23 779.08 647.26 784.80 C 648.45 786.35 649.94 786.21 651.68 786.34 C 651.37 778.94 652.80 771.33 649.51 764.74 Z" id="p31" />
<path d="M 649.35 766.69 C 650.93 769.64 650.66 773.75 650.97 777.02 C 650.97 779.66 651.61 783.21 650.12 785.50 C 648.67 784.94 647.74 784.25 647.01 782.86 C 644.27 777.70 643.34 772.35 644.54 766.58 C 646.37 766.08 647.85 764.80 649.35 766.69 Z" id="p32" />
<path d="M 1.86 778.66 C 8.34 778.44 14.75 778.67 21.21 779.11 C 34.48 779.31 47.78 779.27 61.04 779.76 C 72.60 780.75 84.64 781.67 96.00 784.02 C 106.88 786.71 118.50 789.16 129.75 788.60 C 122.32 798.25 111.78 803.47 101.00 808.49 C 86.60 803.71 72.61 797.97 59.13 790.99 C 57.07 789.86 55.13 788.72 53.47 787.03 C 52.40 783.58 55.47 784.38 57.71 784.32 C 61.80 784.91 65.05 789.27 68.37 791.57 C 65.41 787.25 60.17 782.21 54.45 783.53 C 52.28 784.21 51.99 785.26 52.64 787.31 C 54.52 789.69 57.72 791.21 60.36 792.62 C 71.13 797.90 81.83 802.83 93.21 806.66 C 98.81 808.63 105.10 810.57 109.99 813.97 C 113.06 816.06 115.53 818.60 118.17 821.17 C 117.01 822.57 115.66 823.96 114.77 825.57 C 114.25 827.32 114.57 829.37 114.53 831.18 C 112.94 834.09 111.45 837.01 110.53 840.22 C 107.22 851.50 105.98 863.36 104.81 875.01 C 104.31 881.43 104.36 887.87 103.60 894.27 C 99.80 893.33 96.06 892.26 92.49 890.63 C 83.69 886.66 75.04 882.57 65.97 879.20 C 52.95 874.28 39.34 871.67 26.25 866.87 C 17.47 863.64 8.71 859.99 0.61 855.27 C 0.70 834.85 0.62 814.42 0.65 794.00 C 0.72 788.70 -0.02 783.77 1.86 778.66 Z" id="p33" />
<path d="M 149.01 783.20 C 156.00 784.11 164.40 786.23 168.53 792.47 C 171.30 796.71 174.02 801.00 176.77 805.26 C 171.54 807.99 166.27 808.03 160.55 808.89 C 152.49 809.85 144.51 811.34 136.76 813.79 C 130.47 815.83 124.45 817.76 118.85 821.38 C 114.73 815.39 108.76 811.60 102.11 808.93 C 108.84 805.79 115.90 802.33 121.77 797.74 C 125.26 794.92 128.55 792.23 130.62 788.14 C 137.33 786.29 141.71 782.27 149.01 783.20 Z" id="p34" />
<path d="M 203.00 807.60 C 231.87 807.74 261.27 806.99 290.03 809.54 C 310.14 811.40 328.87 816.73 348.00 822.90 C 354.66 825.13 361.43 827.36 367.79 830.35 C 370.48 831.68 373.71 833.31 375.32 835.94 C 376.45 838.98 373.17 841.55 370.90 842.96 C 361.65 848.25 350.11 850.14 339.59 850.77 C 339.54 850.33 339.50 849.89 339.45 849.45 L 339.44 849.09 C 324.52 845.78 309.16 844.28 294.01 842.46 C 278.72 840.61 263.38 840.21 248.00 839.80 C 223.81 839.91 199.83 839.25 175.52 841.29 C 170.76 841.70 166.15 842.02 161.75 844.10 C 150.72 842.21 139.62 839.78 129.07 836.03 C 124.33 834.39 120.14 831.65 115.41 830.00 C 115.37 828.62 115.41 827.25 115.51 825.88 C 117.10 822.91 120.85 821.02 123.77 819.59 C 136.56 813.79 150.11 810.78 164.02 809.29 C 177.16 807.15 189.73 807.74 203.00 807.60 Z" id="p35" />
<path d="M 1003.00 823.63 C 1008.96 823.67 1015.25 823.64 1021.11 824.78 L 1022.47 826.74 C 1023.06 840.66 1022.55 854.52 1022.11 868.42 C 1021.89 873.83 1021.31 879.20 1020.38 884.53 C 1019.18 891.31 1017.37 899.40 1012.73 904.71 C 1008.92 909.15 1003.64 910.98 998.04 911.96 C 988.03 913.54 977.07 913.23 967.03 913.97 C 941.64 915.58 916.28 918.31 890.99 921.05 C 868.71 923.50 846.60 925.83 824.50 929.74 C 810.47 932.30 797.00 935.75 784.20 942.19 C 781.33 943.57 778.22 945.48 775.07 946.00 C 773.42 944.88 773.19 943.06 772.66 941.27 C 771.80 937.58 771.35 933.79 770.86 930.04 C 768.44 911.08 766.58 892.03 764.44 873.03 C 764.12 869.58 763.49 865.54 764.48 862.18 C 765.34 859.34 767.96 857.72 770.44 856.45 C 775.11 854.21 780.15 852.67 785.07 851.09 C 831.12 837.01 877.61 830.75 925.49 827.13 C 951.27 825.23 977.14 823.64 1003.00 823.63 Z" id="p36" />
<path d="M 117.01 831.57 C 120.62 832.87 123.84 835.07 127.47 836.37 C 138.79 840.59 150.95 843.10 162.83 845.20 C 191.28 850.26 220.08 853.27 248.99 853.55 C 274.99 853.90 301.03 854.03 327.02 853.21 C 337.92 852.34 348.61 851.98 359.09 848.85 C 364.80 847.17 369.84 844.36 375.42 842.30 C 378.40 847.83 377.26 854.90 376.93 861.00 C 376.32 872.64 375.00 884.21 374.06 895.82 C 371.12 924.24 368.43 952.73 364.49 981.03 C 362.31 995.39 359.91 1010.36 354.78 1024.00 L 112.62 1024.00 C 106.59 1002.00 105.58 977.70 104.63 955.04 C 104.03 930.11 103.75 904.89 105.41 880.00 C 106.05 868.60 107.42 857.14 109.89 845.99 C 111.01 841.61 112.11 836.52 114.81 832.82 C 115.43 831.97 116.17 831.55 117.01 831.57 Z" id="p37" />
<path d="M 248.00 839.80 C 263.38 840.21 278.72 840.61 294.01 842.46 C 309.16 844.28 324.52 845.78 339.44 849.09 L 339.45 849.45 C 339.44 850.00 339.43 850.55 339.41 851.10 C 335.28 851.58 331.12 852.23 327.01 852.35 C 294.68 853.11 262.31 852.97 229.99 852.25 C 220.15 851.33 210.31 850.99 200.49 849.79 C 187.54 848.27 174.57 846.54 161.75 844.10 C 166.15 842.02 170.76 841.70 175.52 841.29 C 199.83 839.25 223.81 839.91 248.00 839.80 Z" id="p38" />
<path d="M 0.68 856.65 C 2.29 857.50 4.35 858.01 5.33 859.63 C 8.26 863.84 10.13 868.46 15.23 870.57 C 20.94 872.81 25.47 870.71 31.05 869.79 C 37.11 870.91 43.02 873.27 49.07 874.68 C 53.42 875.64 55.18 878.87 58.57 881.32 C 61.99 883.83 65.86 884.56 69.48 886.45 C 72.75 888.17 75.04 892.16 78.52 893.21 C 82.11 894.10 86.37 893.16 89.96 892.56 C 94.36 891.40 99.12 894.47 103.60 895.05 C 103.30 919.55 102.87 944.22 104.50 968.68 C 97.99 969.60 91.54 969.15 85.00 969.53 C 75.37 969.84 65.49 971.86 55.99 969.31 C 46.80 966.89 37.92 962.62 29.14 959.00 C 19.62 954.77 9.96 950.86 0.54 946.42 C 0.76 916.50 0.57 886.57 0.68 856.65 Z" id="p39" />
<path d="M 521.01 860.76 C 534.23 861.85 547.71 862.82 560.76 865.28 C 564.55 866.10 569.21 867.16 572.16 869.84 C 574.99 872.37 575.34 876.41 575.56 879.96 C 576.02 901.65 576.71 923.37 578.36 944.99 C 578.48 947.26 578.61 949.74 578.09 951.96 C 576.77 953.57 574.96 953.57 573.04 953.75 C 568.38 953.97 563.67 953.63 559.00 953.54 C 516.93 952.75 475.12 952.39 433.00 953.16 C 415.15 953.11 396.98 953.83 379.21 952.23 C 376.35 951.80 371.83 951.43 369.96 948.94 C 369.27 945.48 370.23 941.47 370.62 937.99 C 372.39 923.18 373.55 908.31 375.21 893.50 C 375.63 884.29 377.09 875.20 377.50 866.00 C 377.70 864.22 377.60 862.05 378.47 860.45 C 379.46 858.67 382.24 858.91 383.99 858.75 C 392.67 858.79 401.34 858.55 410.01 858.27 C 446.88 856.89 484.22 858.19 521.01 860.76 Z" id="p40" />
<path d="M 6.31 859.59 C 7.74 860.18 9.16 860.78 10.58 861.39 C 16.92 864.29 23.37 866.80 29.94 869.12 C 25.36 870.15 20.79 871.46 16.13 869.99 C 12.82 868.85 10.67 866.17 8.72 863.40 C 7.91 862.14 7.10 860.86 6.31 859.59 Z" id="p41" />
<path d="M 54.17 876.22 C 55.61 876.64 57.05 877.07 58.49 877.50 C 69.91 881.16 80.91 886.31 91.81 891.32 C 87.58 892.14 82.29 893.42 78.07 892.15 C 74.60 890.37 72.70 886.74 68.90 885.18 C 64.67 883.37 60.52 882.24 57.04 879.03 C 56.07 878.11 55.11 877.17 54.17 876.22 Z" id="p42" />
<path d="M 871.28 924.31 C 871.82 934.86 871.48 945.45 872.00 955.99 C 872.13 958.54 871.90 961.06 871.60 963.59 C 864.99 963.67 858.43 964.32 851.81 964.25 C 850.99 951.86 850.34 939.42 850.21 927.01 C 857.13 925.58 864.25 925.01 871.28 924.31 Z" id="p43" />
<path d="M 0.59 947.83 C 13.06 952.57 25.10 958.45 37.47 963.46 C 43.78 966.10 50.37 968.90 57.04 970.45 C 63.68 972.02 70.28 971.50 77.00 970.89 C 86.12 970.08 95.26 970.47 104.38 969.61 C 104.88 981.45 106.15 993.27 107.68 1005.02 C 102.49 1006.88 97.58 1008.91 92.03 1009.43 C 84.72 1010.06 77.16 1009.87 69.98 1008.31 C 58.46 1005.94 47.19 1003.11 35.43 1002.15 C 24.08 1001.17 12.81 999.60 1.51 998.19 C 1.38 993.79 1.56 989.39 1.33 985.00 C 1.03 981.65 0.36 978.39 0.45 975.00 C 0.56 965.94 0.56 956.89 0.59 947.83 Z" id="p44" />
<path d="M 510.14 953.68 C 512.42 959.28 514.29 965.02 516.33 970.71 C 517.03 972.74 517.74 974.80 517.99 976.94 C 514.78 979.90 510.28 981.54 506.55 983.79 C 503.12 977.53 500.05 970.88 498.18 963.98 C 497.60 961.07 496.65 957.52 499.44 955.42 C 502.17 953.33 506.86 953.85 510.14 953.68 Z" id="p45" />
<path d="M 1.51 999.06 C 2.49 999.17 3.46 999.29 4.43 999.40 C 16.92 1001.21 29.47 1002.35 42.00 1003.75 C 58.88 1005.78 72.85 1011.75 89.00 1010.57 C 95.77 1010.39 101.73 1008.08 108.04 1005.93 C 108.40 1011.72 111.56 1018.79 108.42 1024.00 L 1.66 1024.00 C 1.65 1021.83 1.64 1019.66 1.63 1017.48 C 6.91 1020.07 12.02 1022.28 17.99 1022.61 C 27.57 1023.01 37.47 1022.37 47.00 1022.38 C 49.11 1022.36 51.21 1022.20 53.29 1021.80 C 41.32 1020.50 29.02 1022.89 17.01 1021.67 C 11.46 1021.12 6.56 1018.99 1.63 1016.52 C 1.71 1010.70 1.55 1004.88 1.51 999.06 Z" id="p46" />
</defs>
<g stroke-width="10pt">
<use stroke="#ffffff" xlink:href="#p0" />
<use stroke="#a09d9c" xlink:href="#p1" />
<use stroke="#ffffff" xlink:href="#p2" />
<use stroke="#373435" xlink:href="#p3" />
<use stroke="#fdd1a1" xlink:href="#p4" />
<use stroke="#fdd1a1" xlink:href="#p5" />
<use stroke="#fdd1a1" xlink:href="#p6" />
<use stroke="#373435" xlink:href="#p7" />
<use stroke="#373435" xlink:href="#p8" />
<use stroke="#84716b" xlink:href="#p9" />
<use stroke="#fefefe" xlink:href="#p10" />
<use stroke="#fefefe" xlink:href="#p11" />
<use stroke="#fefefe" xlink:href="#p12" />
<use stroke="#fdd1a1" xlink:href="#p13" />
<use stroke="#84716b" xlink:href="#p14" />
<use stroke="#ffffff" xlink:href="#p15" />
<use stroke="#fefefe" xlink:href="#p16" />
<use stroke="#777170" xlink:href="#p17" />
<use stroke="#fefefe" xlink:href="#p18" />
<use stroke="#a49a8f" xlink:href="#p19" />
<use stroke="#fdd1a1" xlink:href="#p20" />
<use stroke="#ffffff" xlink:href="#p21" />
<use stroke="#ffffff" xlink:href="#p22" />
<use stroke="#fdd1a1" xlink:href="#p23" />
<use stroke="#636365" xlink:href="#p24" />
<use stroke="#8e7b75" xlink:href="#p25" />
<use stroke="#fcd3c2" xlink:href="#p26" />
<use stroke="#fcd3c2" xlink:href="#p27" />
<use stroke="#5b5859" xlink:href="#p28" />
<use stroke="#907b66" xlink:href="#p29" />
<use stroke="#52658c" xlink:href="#p30" />
<use stroke="#96989a" xlink:href="#p31" />
<use stroke="#d2d3d5" xlink:href="#p32" />
<use stroke="#fdd1a1" xlink:href="#p33" />
<use stroke="#fdd1a1" xlink:href="#p34" />
<use stroke="#fefefe" xlink:href="#p35" />
<use stroke="#96989a" xlink:href="#p36" />
<use stroke="#fefefe" xlink:href="#p37" />
<use stroke="#ce8f64" xlink:href="#p38" />
<use stroke="#fdd1a1" xlink:href="#p39" />
<use stroke="#96989a" xlink:href="#p40" />
<use stroke="#fdd1a1" xlink:href="#p41" />
<use stroke="#fdd1a1" xlink:href="#p42" />
<use stroke="#96989a" xlink:href="#p43" />
<use stroke="#fdd1a1" xlink:href="#p44" />
<use stroke="#96989a" xlink:href="#p45" />
<use stroke="#fdd1a1" xlink:href="#p46" />
</g>
<g>
<use fill="#ffffff" xlink:href="#p0" />
<use fill="#a09d9c" xlink:href="#p1" />
<use fill="#ffffff" xlink:href="#p2" />
<use fill="#373435" xlink:href="#p3" />
<use fill="#fdd1a1" xlink:href="#p4" />
<use fill="#fdd1a1" xlink:href="#p5" />
<use fill="#fdd1a1" xlink:href="#p6" />
<use fill="#373435" xlink:href="#p7" />
<use fill="#373435" xlink:href="#p8" />
<use fill="#84716b" xlink:href="#p9" />
<use fill="#fefefe" xlink:href="#p10" />
<use fill="#fefefe" xlink:href="#p11" />
<use fill="#fefefe" xlink:href="#p12" />
<use fill="#fdd1a1" xlink:href="#p13" />
<use fill="#84716b" xlink:href="#p14" />
<use fill="#ffffff" xlink:href="#p15" />
<use fill="#fefefe" xlink:href="#p16" />
<use fill="#777170" xlink:href="#p17" />
<use fill="#fefefe" xlink:href="#p18" />
<use fill="#a49a8f" xlink:href="#p19" />
<use fill="#fdd1a1" xlink:href="#p20" />
<use fill="#ffffff" xlink:href="#p21" />
<use fill="#ffffff" xlink:href="#p22" />
<use fill="#fdd1a1" xlink:href="#p23" />
<use fill="#636365" xlink:href="#p24" />
<use fill="#8e7b75" xlink:href="#p25" />
<use fill="#fcd3c2" xlink:href="#p26" />
<use fill="#fcd3c2" xlink:href="#p27" />
<use fill="#5b5859" xlink:href="#p28" />
<use fill="#907b66" xlink:href="#p29" />
<use fill="#52658c" xlink:href="#p30" />
<use fill="#96989a" xlink:href="#p31" />
<use fill="#d2d3d5" xlink:href="#p32" />
<use fill="#fdd1a1" xlink:href="#p33" />
<use fill="#fdd1a1" xlink:href="#p34" />
<use fill="#fefefe" xlink:href="#p35" />
<use fill="#96989a" xlink:href="#p36" />
<use fill="#fefefe" xlink:href="#p37" />
<use fill="#ce8f64" xlink:href="#p38" />
<use fill="#fdd1a1" xlink:href="#p39" />
<use fill="#96989a" xlink:href="#p40" />
<use fill="#fdd1a1" xlink:href="#p41" />
<use fill="#fdd1a1" xlink:href="#p42" />
<use fill="#96989a" xlink:href="#p43" />
<use fill="#fdd1a1" xlink:href="#p44" />
<use fill="#96989a" xlink:href="#p45" />
<use fill="#fdd1a1" xlink:href="#p46" />
</g>
</svg>